# This file uses meters as units for non-parametric coordinates.

mtllib Estanteria3.mtl
g default
v -746.402344 0.000000 60.000004
v -746.402344 0.000000 -60.000004
v 748.177002 0.000000 -60.000004
v 748.177002 0.000000 60.000004
v -746.402344 25.904161 60.000004
v 748.176819 25.904161 60.000004
v 746.239990 26.879999 -46.545532
v -746.239990 26.879999 -46.545532
v -746.402344 240.980164 60.000004
v -746.239990 240.917786 -46.545532
v -800.000000 25.904161 60.000004
v -800.000000 240.980164 60.000004
v -746.402283 240.980164 -60.000004
v 748.177002 240.980164 -60.000004
v 748.177002 25.903929 -60.000004
v -746.402344 25.903929 -60.000004
v -746.402344 267.797791 -60.000004
v -800.000000 240.980164 -60.000004
v -800.000000 267.797791 -60.000004
v 800.000000 25.903929 -60.000004
v 800.000000 0.000000 -60.000004
v 746.239990 240.917786 -46.545532
v -800.000000 267.797791 60.000004
v 800.000000 0.000000 60.000004
v 800.000000 25.904161 60.000004
v -746.402344 267.797791 60.000004
v 800.000000 240.980164 -60.000004
v 748.177002 267.797791 -60.000004
v 748.176819 240.980164 60.000004
v 800.000000 240.980164 60.000004
v 748.177002 267.797791 60.000004
v 800.000000 267.797791 -60.000004
v 800.000000 267.797791 60.000004
v -800.000000 25.903929 -60.000004
v -800.000000 0.000000 60.000004
v -800.000000 0.000000 -60.000004
vt 0.141315 0.453775
vt 0.807812 0.058222
vt 0.083301 0.058173
vt 0.083305 0.000002
vt 0.141323 0.466333
vt 0.865834 0.465835
vt 0.775160 0.297932
vt 0.051667 0.297810
vt 0.051562 0.453216
vt 0.051649 0.401567
vt 0.891964 0.070785
vt 0.115413 0.570610
vt 0.807804 0.175039
vt 0.083294 0.174990
vt 0.083301 0.070730
vt 0.807811 0.070779
vt 0.807803 0.188039
vt 0.833786 0.175041
vt 0.833785 0.188041
vt 0.058179 0.070728
vt 0.058180 0.058171
vt 0.775142 0.401689
vt 0.115422 0.583611
vt 0.000009 0.058167
vt 0.000008 0.070724
vt 0.141404 0.583593
vt 0.058172 0.174988
vt 0.083293 0.187990
vt 0.865905 0.570095
vt 0.000001 0.174984
vt 0.865914 0.583095
vt 0.058171 0.187988
vt 0.058167 0.246160
vt 0.833793 0.070780
vt 0.891965 0.058227
vt 0.833794 0.058223
vt 0.826799 0.401728
vt 0.141395 0.570593
vt 0.776107 0.246281
vt 0.000018 0.297328
vt 0.776072 0.453338
vt 0.000000 0.401588
vt 0.051597 0.246159
vt 0.826817 0.297468
vt 0.115341 0.466350
vt 0.115333 0.453793
vt 0.807816 0.000050
vt 0.083289 0.246161
vt 0.891036 0.583078
vt 0.891027 0.570078
vt 0.807800 0.246210
vt 0.890955 0.465818
vt 0.891956 0.188045
vt 0.890947 0.453261
vt 0.865825 0.453278
vt 0.891957 0.175045
vt 0.833798 0.000052
vt 0.000000 0.187985
vt 0.058184 0.000000
vt 0.833782 0.246212
vn 0.000000 -1.000000 0.000000
vn 0.000000 -1.000000 0.000000
vn 0.000000 -1.000000 0.000000
vn 0.000000 -1.000000 0.000000
vn 0.000000 0.999958 0.009159
vn 0.000000 0.999958 0.009159
vn 0.000000 0.999958 0.009159
vn 0.000000 0.999958 0.009159
vn 0.999999 0.000000 0.001524
vn 0.999999 0.000000 0.001524
vn 0.999999 0.000000 0.001524
vn 0.999999 0.000000 0.001524
vn 0.000000 0.000000 1.000000
vn 0.000000 0.000000 1.000000
vn 0.000000 0.000000 1.000000
vn 0.000000 0.000000 1.000000
vn 0.000000 0.000000 1.000000
vn 0.000000 0.000000 1.000000
vn 0.000000 0.000000 1.000000
vn 0.000000 0.000000 -1.000000
vn 0.000000 0.000000 -1.000000
vn 0.000000 0.000000 -1.000000
vn 0.000000 0.000000 -1.000000
vn 0.000000 0.000000 -1.000000
vn 0.000000 0.000000 -1.000000
vn 0.000000 0.000000 -1.000000
vn 0.000000 0.000000 -1.000000
vn 0.000000 0.000000 -1.000000
vn 0.000000 0.000000 -1.000000
vn 0.000000 0.000000 1.000000
vn 0.000000 0.000000 1.000000
vn 0.000000 0.000000 1.000000
vn 0.000000 0.000000 1.000000
vn -1.000000 0.000000 0.000000
vn -1.000000 0.000000 0.000000
vn -1.000000 0.000000 0.000000
vn -1.000000 0.000000 0.000000
vn 0.000000 -1.000000 0.000000
vn 0.000000 -1.000000 0.000000
vn 1.000000 0.000000 0.000000
vn 1.000000 0.000000 0.000000
vn 1.000000 0.000000 0.000000
vn 1.000000 0.000000 0.000000
vn 0.000000 1.000000 0.000000
vn 0.000000 1.000000 0.000000
vn 0.000000 1.000000 0.000000
vn 0.000000 1.000000 0.000000
vn 0.000000 0.000000 1.000000
vn 0.000000 0.000000 1.000000
vn 0.000000 0.000000 1.000000
vn 0.000000 0.000000 1.000000
vn 0.000000 0.000000 -1.000000
vn 0.000000 0.000000 -1.000000
vn -0.999835 0.000000 0.018175
vn -0.999835 0.000000 0.018175
vn -0.999835 0.000000 0.018175
vn -0.999835 0.000000 0.018175
vn 0.000000 -1.000000 0.000585
vn 0.000000 -1.000000 0.000585
vn 0.000000 -1.000000 0.000585
vn 0.000000 -1.000000 0.000585
vn 1.000000 0.000000 0.000000
vn 1.000000 0.000000 0.000000
vn 0.000000 1.000000 0.000000
vn 0.000000 1.000000 0.000000
vn 0.000000 0.000000 1.000000
vn 0.000000 0.000000 1.000000
vn 0.000000 0.000000 1.000000
vn 0.000000 0.000000 -1.000000
vn 1.000000 0.000000 0.000000
vn 1.000000 0.000000 0.000000
vn 0.000000 1.000000 0.000000
vn 0.000000 1.000000 0.000000
vn 0.000000 0.000000 1.000000
vn -1.000000 0.000000 0.000000
vn -1.000000 0.000000 0.000000
vn 0.000000 0.000000 -1.000000
vn 0.000000 0.000000 -1.000000
vn 0.000000 0.000000 1.000000
vn 0.000000 -1.000000 0.000000
vn 0.000000 -1.000000 0.000000
vn -1.000000 0.000000 0.000000
vn -1.000000 0.000000 0.000000
vn 0.000000 0.000000 -1.000000
s 1
g Armario
usemtl initialShadingGroup
f 1/47/1 2/2/2 3/3/3 4/4/4
s off
f 5/43/5 6/39/6 7/7/7 8/8/8
f 9/42/9 5/40/10 8/8/11 10/10/12
s 2
f 11/45/13 5/5/14 9/38/15 12/12/16
f 1/1/17 4/55/18 6/6/19 5/5/14
s 4
f 13/13/20 14/14/21 15/15/22 16/16/23
f 17/17/24 13/13/20 18/18/25 19/19/26
f 3/3/27 15/15/22 20/20/28 21/21/29
s off
f 10/10/30 8/8/31 7/7/32 22/22/33
s 5
f 19/19/34 18/18/35 12/56/36 23/53/37
s 1
f 4/4/4 3/3/3 21/21/38 24/59/39
s 6
f 24/24/40 21/21/41 20/20/42 25/25/43
s 7
f 23/60/44 26/51/45 17/17/46 19/19/47
s 2
f 12/12/16 9/38/15 26/26/48 23/23/49
f 6/6/19 4/55/18 24/54/50 25/52/51
s 4
f 15/15/22 14/14/21 27/27/52 20/20/28
f 28/28/53 14/14/21 13/13/20 17/17/24
s off
f 6/44/54 29/37/55 22/22/56 7/7/57
f 29/41/58 9/9/59 10/10/60 22/22/61
s 6
f 25/25/43 20/20/42 27/27/62 30/30/63
s 7
f 17/17/46 26/51/45 31/48/64 28/28/65
s 2
f 29/29/66 6/6/19 25/52/51 30/50/67
f 9/38/15 29/29/66 31/31/68 26/26/48
s 4
f 32/32/69 27/27/52 14/14/21 28/28/53
s 6
f 30/30/63 27/27/62 32/32/70 33/58/71
s 7
f 28/28/65 31/48/64 33/33/72 32/32/73
s 2
f 31/31/68 29/29/66 30/50/67 33/49/74
s 5
f 12/56/36 18/18/35 34/34/75 11/11/76
s 4
f 16/16/23 15/15/22 3/3/27 2/2/77
f 18/18/25 13/13/20 16/16/23 34/34/78
s 2
f 35/46/79 1/1/17 5/5/14 11/45/13
s 1
f 36/36/80 2/2/2 1/47/1 35/57/81
s 5
f 11/11/76 34/34/75 36/36/82 35/35/83
s 4
f 34/34/78 16/16/23 2/2/77 36/36/84
g default
v -747.000000 125.000000 50.000000
v 747.000000 125.000000 50.000000
v -747.000000 133.000000 50.000000
v 747.000000 133.000000 50.000000
v -747.000000 133.000000 -50.000000
v 747.000000 133.000000 -50.000000
v -747.000000 125.000000 -50.000000
v 747.000000 125.000000 -50.000000
vt 0.946268 0.728108
vt 0.946181 0.003878
vt 0.946181 0.000000
vt 0.951524 0.724232
vt 0.897705 0.000006
vt 0.893914 0.728114
vt 0.897705 0.003884
vt 0.897792 0.728114
vt 0.999970 0.000000
vt 0.893827 0.003884
vt 1.000000 0.724230
vt 0.897792 0.731992
vt 0.950059 0.003878
vt 0.951494 0.000002
vt 0.950146 0.728108
vt 0.946268 0.731986
vn 0.000000 0.000000 1.000000
vn 0.000000 0.000000 1.000000
vn 0.000000 0.000000 1.000000
vn 0.000000 0.000000 1.000000
vn 0.000000 1.000000 0.000000
vn 0.000000 1.000000 0.000000
vn 0.000000 1.000000 0.000000
vn 0.000000 1.000000 0.000000
vn 0.000000 0.000000 -1.000000
vn 0.000000 0.000000 -1.000000
vn 0.000000 0.000000 -1.000000
vn 0.000000 0.000000 -1.000000
vn 0.000000 -1.000000 0.000000
vn 0.000000 -1.000000 0.000000
vn 0.000000 -1.000000 0.000000
vn 0.000000 -1.000000 0.000000
vn 1.000000 0.000000 0.000000
vn 1.000000 0.000000 0.000000
vn 1.000000 0.000000 0.000000
vn 1.000000 0.000000 0.000000
vn -1.000000 0.000000 0.000000
vn -1.000000 0.000000 0.000000
vn -1.000000 0.000000 0.000000
vn -1.000000 0.000000 0.000000
s off
g Estante1
usemtl initialShadingGroup
f 37/61/85 38/62/86 40/73/87 39/75/88
f 39/64/89 40/74/90 42/69/91 41/71/92
f 41/66/93 42/70/94 44/67/95 43/68/96
f 43/68/97 44/67/98 38/62/99 37/61/100
f 38/62/101 44/67/102 42/65/103 40/63/104
f 43/68/105 37/61/106 39/76/107 41/72/108
