# This file uses meters as units for non-parametric coordinates.

mtllib Estanteria1.mtl
g default
v -373.500000 665.013794 50.000000
v 373.500000 665.013794 50.000000
v -373.500000 673.013794 50.000000
v 373.500000 673.013794 50.000000
v -373.500000 673.013794 -50.000000
v 373.500000 673.013794 -50.000000
v -373.500000 665.013794 -50.000000
v 373.500000 665.013794 -50.000000
vt 0.993435 0.758498
vt 0.993373 0.385249
vt 0.993372 0.381251
vt 0.699253 0.386209
vt 0.943406 0.381259
vt 0.939471 0.758507
vt 0.943407 0.385257
vt 0.943469 0.758506
vt 0.749186 0.012956
vt 0.939409 0.385257
vt 0.749219 0.386205
vt 0.943469 0.762503
vt 0.997370 0.385248
vt 0.699220 0.012960
vt 0.997432 0.758497
vt 0.993436 0.762495
vn 0.000000 0.000000 1.000000
vn 0.000000 0.000000 1.000000
vn 0.000000 0.000000 1.000000
vn 0.000000 0.000000 1.000000
vn 0.000000 1.000000 0.000000
vn 0.000000 1.000000 0.000000
vn 0.000000 1.000000 0.000000
vn 0.000000 1.000000 0.000000
vn 0.000000 0.000000 -1.000000
vn 0.000000 0.000000 -1.000000
vn 0.000000 0.000000 -1.000000
vn 0.000000 0.000000 -1.000000
vn 0.000000 -1.000000 0.000000
vn 0.000000 -1.000000 0.000000
vn 0.000000 -1.000000 0.000000
vn 0.000000 -1.000000 0.000000
vn 1.000000 0.000000 0.000000
vn 1.000000 0.000000 0.000000
vn 1.000000 0.000000 0.000000
vn 1.000000 0.000000 0.000000
vn -1.000000 0.000000 0.000000
vn -1.000000 0.000000 0.000000
vn -1.000000 0.000000 0.000000
vn -1.000000 0.000000 0.000000
s off
g Estante6
usemtl initialShadingGroup
f 1/1/1 2/2/2 4/13/3 3/15/4
f 3/4/5 4/14/6 6/9/7 5/11/8
f 5/6/9 6/10/10 8/7/11 7/8/12
f 7/8/13 8/7/14 2/2/15 1/1/16
f 2/2/17 8/7/18 6/5/19 4/3/20
f 7/8/21 1/1/22 3/16/23 5/12/24
g default
v -373.201172 0.000000 60.000004
v -373.201172 0.000000 -60.000004
v 374.088501 0.000000 -60.000004
v 374.088501 0.000000 60.000004
v -373.201172 25.904161 60.000004
v 374.088409 25.904161 60.000004
v 373.119995 26.879999 -46.545532
v -373.119995 26.879999 -46.545532
v -373.201172 773.182373 60.000004
v -373.119995 773.119995 -46.545532
v -400.000000 25.904161 60.000004
v -400.000000 773.182373 60.000004
v -373.201141 773.182373 -60.000004
v 374.088501 773.182373 -60.000004
v 374.088501 25.903929 -60.000004
v -373.201172 25.903929 -60.000004
v -373.201172 800.000000 -60.000004
v -400.000000 773.182373 -60.000004
v -400.000000 800.000000 -60.000004
v 400.000000 25.903929 -60.000004
v 400.000000 0.000000 -60.000004
v 373.119995 773.119995 -46.545532
v -400.000000 800.000000 60.000004
v 400.000000 0.000000 60.000004
v 400.000000 25.904161 60.000004
v -373.201172 800.000000 60.000004
v 400.000000 773.182373 -60.000004
v 374.088501 800.000000 -60.000004
v 374.088409 773.182373 60.000004
v 400.000000 773.182373 60.000004
v 374.088501 800.000000 60.000004
v 400.000000 800.000000 -60.000004
v 400.000000 800.000000 60.000004
v -400.000000 25.903929 -60.000004
v -400.000000 0.000000 60.000004
v -400.000000 0.000000 -60.000004
vt 0.536492 0.000001
vt 0.446299 0.059995
vt 0.072906 0.060995
vt 0.072746 0.001036
vt 0.536491 0.012944
vt 0.909885 0.012964
vt 0.463469 0.573839
vt 0.090600 0.573894
vt 0.090621 1.000000
vt 0.090654 0.946763
vt 0.519684 0.072742
vt 0.523081 0.386332
vt 0.447333 0.446325
vt 0.073941 0.447325
vt 0.072941 0.073938
vt 0.446334 0.072939
vt 0.447369 0.459725
vt 0.460724 0.446290
vt 0.460760 0.459689
vt 0.059994 0.073973
vt 0.059960 0.061030
vt 0.463524 0.946709
vt 0.523080 0.399732
vt 0.000000 0.061190
vt 0.000035 0.074134
vt 0.536471 0.399732
vt 0.060994 0.447360
vt 0.073977 0.460725
vt 0.909865 0.386352
vt 0.001034 0.447521
vt 0.909865 0.399752
vt 0.061030 0.460760
vt 0.061190 0.520719
vt 0.459724 0.072903
vt 0.519649 0.059799
vt 0.459689 0.059960
vt 0.516763 0.946732
vt 0.536471 0.386332
vt 0.463946 0.520600
vt 0.037363 0.573414
vt 0.464015 0.999946
vt 0.037417 0.946802
vt 0.090552 0.520654
vt 0.516708 0.573344
vt 0.523101 0.012943
vt 0.523101 0.000000
vt 0.446138 0.000036
vt 0.074137 0.520685
vt 0.922812 0.399752
vt 0.922812 0.386353
vt 0.447530 0.519685
vt 0.922832 0.012964
vt 0.520719 0.459529
vt 0.922833 0.000021
vt 0.909886 0.000020
vt 0.520683 0.446129
vt 0.459529 0.000000
vt 0.001070 0.460920
vt 0.059799 0.001070
vt 0.460920 0.519649
vn 0.000000 -1.000000 0.000000
vn 0.000000 -1.000000 0.000000
vn 0.000000 -1.000000 0.000000
vn 0.000000 -1.000000 0.000000
vn 0.000000 0.999958 0.009159
vn 0.000000 0.999958 0.009159
vn 0.000000 0.999958 0.009159
vn 0.000000 0.999958 0.009159
vn 1.000000 0.000000 0.000762
vn 1.000000 0.000000 0.000762
vn 1.000000 0.000000 0.000762
vn 1.000000 0.000000 0.000762
vn 0.000000 0.000000 1.000000
vn 0.000000 0.000000 1.000000
vn 0.000000 0.000000 1.000000
vn 0.000000 0.000000 1.000000
vn 0.000000 0.000000 1.000000
vn 0.000000 0.000000 1.000000
vn 0.000000 0.000000 1.000000
vn 0.000000 0.000000 -1.000000
vn 0.000000 0.000000 -1.000000
vn 0.000000 0.000000 -1.000000
vn 0.000000 0.000000 -1.000000
vn 0.000000 0.000000 -1.000000
vn 0.000000 0.000000 -1.000000
vn 0.000000 0.000000 -1.000000
vn 0.000000 0.000000 -1.000000
vn 0.000000 0.000000 -1.000000
vn 0.000000 0.000000 -1.000000
vn 0.000000 0.000000 1.000000
vn 0.000000 0.000000 1.000000
vn 0.000000 0.000000 1.000000
vn 0.000000 0.000000 1.000000
vn -1.000000 0.000000 0.000000
vn -1.000000 0.000000 0.000000
vn -1.000000 0.000000 0.000000
vn -1.000000 0.000000 0.000000
vn 0.000000 -1.000000 0.000000
vn 0.000000 -1.000000 0.000000
vn 1.000000 0.000000 0.000000
vn 1.000000 0.000000 0.000000
vn 1.000000 0.000000 0.000000
vn 1.000000 0.000000 0.000000
vn 0.000000 1.000000 0.000000
vn 0.000000 1.000000 0.000000
vn 0.000000 1.000000 0.000000
vn 0.000000 1.000000 0.000000
vn 0.000000 0.000000 1.000000
vn 0.000000 0.000000 1.000000
vn 0.000000 0.000000 1.000000
vn 0.000000 0.000000 1.000000
vn 0.000000 0.000000 -1.000000
vn 0.000000 0.000000 -1.000000
vn -0.999959 0.000000 0.009089
vn -0.999959 0.000000 0.009089
vn -0.999959 0.000000 0.009089
vn -0.999959 0.000000 0.009089
vn 0.000000 -1.000000 0.000585
vn 0.000000 -1.000000 0.000585
vn 0.000000 -1.000000 0.000585
vn 0.000000 -1.000000 0.000585
vn 1.000000 0.000000 0.000000
vn 1.000000 0.000000 0.000000
vn 0.000000 1.000000 0.000000
vn 0.000000 1.000000 0.000000
vn 0.000000 0.000000 1.000000
vn 0.000000 0.000000 1.000000
vn 0.000000 0.000000 1.000000
vn 0.000000 0.000000 -1.000000
vn 1.000000 0.000000 0.000000
vn 1.000000 0.000000 0.000000
vn 0.000000 1.000000 0.000000
vn 0.000000 1.000000 0.000000
vn 0.000000 0.000000 1.000000
vn -1.000000 0.000000 0.000000
vn -1.000000 0.000000 0.000000
vn 0.000000 0.000000 -1.000000
vn 0.000000 0.000000 -1.000000
vn 0.000000 0.000000 1.000000
vn 0.000000 -1.000000 0.000000
vn 0.000000 -1.000000 0.000000
vn -1.000000 0.000000 0.000000
vn -1.000000 0.000000 0.000000
vn 0.000000 0.000000 -1.000000
s 1
g Armario
usemtl initialShadingGroup
f 9/63/25 10/18/26 11/19/27 12/20/28
s off
f 13/59/29 14/55/30 15/23/31 16/24/32
f 17/58/33 13/56/34 16/24/35 18/26/36
s 2
f 19/61/37 13/21/38 17/54/39 20/28/40
f 9/17/41 12/71/42 14/22/43 13/21/38
s 4
f 21/29/44 22/30/45 23/31/46 24/32/47
f 25/33/48 21/29/44 26/34/49 27/35/50
f 11/19/51 23/31/46 28/36/52 29/37/53
s off
f 18/26/54 16/24/55 15/23/56 30/38/57
s 5
f 27/35/58 26/34/59 20/72/60 31/69/61
s 1
f 12/20/28 11/19/27 29/37/62 32/75/63
s 6
f 32/40/64 29/37/65 28/36/66 33/41/67
s 7
f 31/76/68 34/67/69 25/33/70 27/35/71
s 2
f 20/28/40 17/54/39 34/42/72 31/39/73
f 14/22/43 12/71/42 32/70/74 33/68/75
s 4
f 23/31/46 22/30/45 35/43/76 28/36/52
f 36/44/77 22/30/45 21/29/44 25/33/48
s off
f 14/60/78 37/53/79 30/38/80 15/23/81
f 37/57/82 17/25/83 18/26/84 30/38/85
s 6
f 33/41/67 28/36/66 35/43/86 38/46/87
s 7
f 25/33/70 34/67/69 39/64/88 36/44/89
s 2
f 37/45/90 14/22/43 33/68/75 38/66/91
f 17/54/39 37/45/90 39/47/92 34/42/72
s 4
f 40/48/93 35/43/76 22/30/45 36/44/77
s 6
f 38/46/87 35/43/86 40/48/94 41/74/95
s 7
f 36/44/89 39/64/88 41/49/96 40/48/97
s 2
f 39/47/92 37/45/90 38/66/91 41/65/98
s 5
f 20/72/60 26/34/59 42/50/99 19/27/100
s 4
f 24/32/47 23/31/46 11/19/51 10/18/101
f 26/34/49 21/29/44 24/32/47 42/50/102
s 2
f 43/62/103 9/17/41 13/21/38 19/61/37
s 1
f 44/52/104 10/18/26 9/63/25 43/73/105
s 5
f 19/27/100 42/50/99 44/52/106 43/51/107
s 4
f 42/50/102 24/32/47 10/18/101 44/52/108
g default
v -5.000000 26.500000 50.000000
v 5.000000 26.500000 50.000000
v -5.000000 773.500000 50.000000
v 5.000000 773.500000 50.000000
v -5.000000 773.500000 -50.000000
v 5.000000 773.500000 -50.000000
v -5.000000 26.500000 -50.000000
v 5.000000 26.500000 -50.000000
vt 0.517849 0.840989
vt 0.901388 0.405190
vt 0.528138 0.404728
vt 0.523142 0.404722
vt 0.528077 0.454695
vt 0.528071 0.459691
vt 0.901326 0.455156
vt 0.906322 0.455162
vt 0.901320 0.460153
vt 0.517743 0.890955
vt 0.901394 0.400193
vt 0.906384 0.405196
vt 0.523080 0.454689
vt 0.890992 0.891747
vt 0.528145 0.399732
vt 0.891098 0.841781
vn 0.000000 0.000000 1.000000
vn 0.000000 0.000000 1.000000
vn 0.000000 0.000000 1.000000
vn 0.000000 0.000000 1.000000
vn 0.000000 1.000000 0.000000
vn 0.000000 1.000000 0.000000
vn 0.000000 1.000000 0.000000
vn 0.000000 1.000000 0.000000
vn 0.000000 0.000000 -1.000000
vn 0.000000 0.000000 -1.000000
vn 0.000000 0.000000 -1.000000
vn 0.000000 0.000000 -1.000000
vn 0.000000 -1.000000 0.000000
vn 0.000000 -1.000000 0.000000
vn 0.000000 -1.000000 0.000000
vn 0.000000 -1.000000 0.000000
vn 1.000000 0.000000 0.000000
vn 1.000000 0.000000 0.000000
vn 1.000000 0.000000 0.000000
vn 1.000000 0.000000 0.000000
vn -1.000000 0.000000 0.000000
vn -1.000000 0.000000 0.000000
vn -1.000000 0.000000 0.000000
vn -1.000000 0.000000 0.000000
s off
g EstanteDivisor
usemtl initialShadingGroup
f 45/87/109 46/78/110 48/79/111 47/91/112
f 47/80/113 48/79/114 50/81/115 49/89/116
f 49/82/117 50/81/118 52/83/119 51/85/120
f 51/84/121 52/83/122 46/78/123 45/88/124
f 46/78/125 52/83/126 50/81/127 48/79/128
f 51/86/129 45/77/130 47/92/131 49/90/132
g default
v -373.500000 233.000000 50.000000
v 373.500000 233.000000 50.000000
v -373.500000 241.000000 50.000000
v 373.500000 241.000000 50.000000
v -373.500000 241.000000 -50.000000
v 373.500000 241.000000 -50.000000
v -373.500000 233.000000 -50.000000
v 373.500000 233.000000 -50.000000
vt 0.630446 0.837070
vt 0.630419 0.463821
vt 0.630419 0.459824
vt 0.592512 0.386205
vt 0.580453 0.459827
vt 0.576483 0.837074
vt 0.580453 0.463825
vt 0.580480 0.837074
vt 0.642435 0.012950
vt 0.576456 0.463825
vt 0.642479 0.386199
vt 0.580480 0.841071
vt 0.634417 0.463821
vt 0.592468 0.012956
vt 0.634444 0.837070
vt 0.630446 0.841068
vn 0.000000 0.000000 1.000000
vn 0.000000 0.000000 1.000000
vn 0.000000 0.000000 1.000000
vn 0.000000 0.000000 1.000000
vn 0.000000 1.000000 0.000000
vn 0.000000 1.000000 0.000000
vn 0.000000 1.000000 0.000000
vn 0.000000 1.000000 0.000000
vn 0.000000 0.000000 -1.000000
vn 0.000000 0.000000 -1.000000
vn 0.000000 0.000000 -1.000000
vn 0.000000 0.000000 -1.000000
vn 0.000000 -1.000000 0.000000
vn 0.000000 -1.000000 0.000000
vn 0.000000 -1.000000 0.000000
vn 0.000000 -1.000000 0.000000
vn 1.000000 0.000000 0.000000
vn 1.000000 0.000000 0.000000
vn 1.000000 0.000000 0.000000
vn 1.000000 0.000000 0.000000
vn -1.000000 0.000000 0.000000
vn -1.000000 0.000000 0.000000
vn -1.000000 0.000000 0.000000
vn -1.000000 0.000000 0.000000
s off
g Estante2
usemtl initialShadingGroup
f 53/93/133 54/94/134 56/105/135 55/107/136
f 55/96/137 56/106/138 58/101/139 57/103/140
f 57/98/141 58/102/142 60/99/143 59/100/144
f 59/100/145 60/99/146 54/94/147 53/93/148
f 54/94/149 60/99/150 58/97/151 56/95/152
f 59/100/153 53/93/154 55/108/155 57/104/156
g default
v -373.500000 341.000000 50.000000
v 373.500000 341.000000 50.000000
v -373.500000 349.000000 50.000000
v 373.500000 349.000000 50.000000
v -373.500000 349.000000 -50.000000
v 373.500000 349.000000 -50.000000
v -373.500000 341.000000 -50.000000
v 373.500000 341.000000 -50.000000
vt 0.977360 0.377256
vt 0.977428 0.004006
vt 0.977428 0.000009
vt 0.752597 0.386208
vt 0.927462 0.000000
vt 0.923397 0.377246
vt 0.927461 0.003997
vt 0.927394 0.377247
vt 0.802561 0.012958
vt 0.923464 0.003997
vt 0.802564 0.386208
vt 0.927393 0.381244
vt 0.981425 0.004007
vt 0.752595 0.012959
vt 0.981358 0.377256
vt 0.977360 0.381253
vn 0.000000 0.000000 1.000000
vn 0.000000 0.000000 1.000000
vn 0.000000 0.000000 1.000000
vn 0.000000 0.000000 1.000000
vn 0.000000 1.000000 0.000000
vn 0.000000 1.000000 0.000000
vn 0.000000 1.000000 0.000000
vn 0.000000 1.000000 0.000000
vn 0.000000 0.000000 -1.000000
vn 0.000000 0.000000 -1.000000
vn 0.000000 0.000000 -1.000000
vn 0.000000 0.000000 -1.000000
vn 0.000000 -1.000000 0.000000
vn 0.000000 -1.000000 0.000000
vn 0.000000 -1.000000 0.000000
vn 0.000000 -1.000000 0.000000
vn 1.000000 0.000000 0.000000
vn 1.000000 0.000000 0.000000
vn 1.000000 0.000000 0.000000
vn 1.000000 0.000000 0.000000
vn -1.000000 0.000000 0.000000
vn -1.000000 0.000000 0.000000
vn -1.000000 0.000000 0.000000
vn -1.000000 0.000000 0.000000
s off
g Estante3
usemtl initialShadingGroup
f 61/109/157 62/110/158 64/121/159 63/123/160
f 63/112/161 64/122/162 66/117/163 65/119/164
f 65/114/165 66/118/166 68/115/167 67/116/168
f 67/116/169 68/115/170 62/110/171 61/109/172
f 62/110/173 68/115/174 66/113/175 64/111/176
f 67/116/177 61/109/178 63/124/179 65/120/180
g default
v -373.500000 125.000000 50.000000
v 373.500000 125.000000 50.000000
v -373.500000 133.000000 50.000000
v 373.500000 133.000000 50.000000
v -373.500000 133.000000 -50.000000
v 373.500000 133.000000 -50.000000
v -373.500000 125.000000 -50.000000
v 373.500000 125.000000 -50.000000
vt 0.747846 0.837215
vt 0.747859 0.463966
vt 0.747859 0.459969
vt 0.645844 0.386199
vt 0.697893 0.459967
vt 0.693882 0.837213
vt 0.697893 0.463965
vt 0.697879 0.837214
vt 0.695847 0.012955
vt 0.693895 0.463964
vt 0.695810 0.386204
vt 0.697879 0.841211
vt 0.751856 0.463966
vt 0.645881 0.012950
vt 0.751843 0.837216
vt 0.747846 0.841213
vn 0.000000 0.000000 1.000000
vn 0.000000 0.000000 1.000000
vn 0.000000 0.000000 1.000000
vn 0.000000 0.000000 1.000000
vn 0.000000 1.000000 0.000000
vn 0.000000 1.000000 0.000000
vn 0.000000 1.000000 0.000000
vn 0.000000 1.000000 0.000000
vn 0.000000 0.000000 -1.000000
vn 0.000000 0.000000 -1.000000
vn 0.000000 0.000000 -1.000000
vn 0.000000 0.000000 -1.000000
vn 0.000000 -1.000000 0.000000
vn 0.000000 -1.000000 0.000000
vn 0.000000 -1.000000 0.000000
vn 0.000000 -1.000000 0.000000
vn 1.000000 0.000000 0.000000
vn 1.000000 0.000000 0.000000
vn 1.000000 0.000000 0.000000
vn 1.000000 0.000000 0.000000
vn -1.000000 0.000000 0.000000
vn -1.000000 0.000000 0.000000
vn -1.000000 0.000000 0.000000
vn -1.000000 0.000000 0.000000
s off
g Estante1
usemtl initialShadingGroup
f 69/125/181 70/126/182 72/137/183 71/139/184
f 71/128/185 72/138/186 74/133/187 73/135/188
f 73/130/189 74/134/190 76/131/191 75/132/192
f 75/132/193 76/131/194 70/126/195 69/125/196
f 70/126/197 76/131/198 74/129/199 72/127/200
f 75/132/201 69/125/202 71/140/203 73/136/204
g default
v -373.500000 557.000000 50.000000
v 373.500000 557.000000 50.000000
v -373.500000 565.000000 50.000000
v 373.500000 565.000000 50.000000
v -373.500000 565.000000 -50.000000
v 373.500000 565.000000 -50.000000
v -373.500000 557.000000 -50.000000
v 373.500000 557.000000 -50.000000
vt 0.571706 0.836998
vt 0.571757 0.463749
vt 0.571758 0.459751
vt 0.539142 0.386203
vt 0.521792 0.459744
vt 0.517743 0.836990
vt 0.521791 0.463742
vt 0.521740 0.836991
vt 0.589059 0.012947
vt 0.517794 0.463741
vt 0.589108 0.386196
vt 0.521739 0.840988
vt 0.575755 0.463749
vt 0.539093 0.012954
vt 0.575704 0.836998
vt 0.571706 0.840995
vn 0.000000 0.000000 1.000000
vn 0.000000 0.000000 1.000000
vn 0.000000 0.000000 1.000000
vn 0.000000 0.000000 1.000000
vn 0.000000 1.000000 0.000000
vn 0.000000 1.000000 0.000000
vn 0.000000 1.000000 0.000000
vn 0.000000 1.000000 0.000000
vn 0.000000 0.000000 -1.000000
vn 0.000000 0.000000 -1.000000
vn 0.000000 0.000000 -1.000000
vn 0.000000 0.000000 -1.000000
vn 0.000000 -1.000000 0.000000
vn 0.000000 -1.000000 0.000000
vn 0.000000 -1.000000 0.000000
vn 0.000000 -1.000000 0.000000
vn 1.000000 0.000000 0.000000
vn 1.000000 0.000000 0.000000
vn 1.000000 0.000000 0.000000
vn 1.000000 0.000000 0.000000
vn -1.000000 0.000000 0.000000
vn -1.000000 0.000000 0.000000
vn -1.000000 0.000000 0.000000
vn -1.000000 0.000000 0.000000
s off
g Estante5
usemtl initialShadingGroup
f 77/141/205 78/142/206 80/153/207 79/155/208
f 79/144/209 80/154/210 82/149/211 81/151/212
f 81/146/213 82/150/214 84/147/215 83/148/216
f 83/148/217 84/147/218 78/142/219 77/141/220
f 78/142/221 84/147/222 82/145/223 80/143/224
f 83/148/225 77/141/226 79/156/227 81/152/228
g default
v -373.500000 449.000000 50.000000
v 373.500000 449.000000 50.000000
v -373.500000 457.000000 50.000000
v 373.500000 457.000000 50.000000
v -373.500000 457.000000 -50.000000
v 373.500000 457.000000 -50.000000
v -373.500000 449.000000 -50.000000
v 373.500000 449.000000 -50.000000
vt 0.689133 0.837143
vt 0.689153 0.463894
vt 0.689153 0.459896
vt 0.805971 0.386210
vt 0.639186 0.459894
vt 0.635169 0.837140
vt 0.639186 0.463891
vt 0.639166 0.837140
vt 0.855939 0.012961
vt 0.635189 0.463891
vt 0.855937 0.386210
vt 0.639166 0.841138
vt 0.693150 0.463894
vt 0.805973 0.012961
vt 0.693130 0.837143
vt 0.689132 0.841140
vn 0.000000 0.000000 1.000000
vn 0.000000 0.000000 1.000000
vn 0.000000 0.000000 1.000000
vn 0.000000 0.000000 1.000000
vn 0.000000 1.000000 0.000000
vn 0.000000 1.000000 0.000000
vn 0.000000 1.000000 0.000000
vn 0.000000 1.000000 0.000000
vn 0.000000 0.000000 -1.000000
vn 0.000000 0.000000 -1.000000
vn 0.000000 0.000000 -1.000000
vn 0.000000 0.000000 -1.000000
vn 0.000000 -1.000000 0.000000
vn 0.000000 -1.000000 0.000000
vn 0.000000 -1.000000 0.000000
vn 0.000000 -1.000000 0.000000
vn 1.000000 0.000000 0.000000
vn 1.000000 0.000000 0.000000
vn 1.000000 0.000000 0.000000
vn 1.000000 0.000000 0.000000
vn -1.000000 0.000000 0.000000
vn -1.000000 0.000000 0.000000
vn -1.000000 0.000000 0.000000
vn -1.000000 0.000000 0.000000
s off
g Estante4
usemtl initialShadingGroup
f 85/157/229 86/158/230 88/169/231 87/171/232
f 87/160/233 88/170/234 90/165/235 89/167/236
f 89/162/237 90/166/238 92/163/239 91/164/240
f 91/164/241 92/163/242 86/158/243 85/157/244
f 86/158/245 92/163/246 90/161/247 88/159/248
f 91/164/249 85/157/250 87/172/251 89/168/252
