# This file uses meters as units for non-parametric coordinates.

mtllib Estanteria2_1.mtl
g default
v -369.067352 0.000000 60.000000
v -369.067352 0.000000 -60.000004
v 378.222321 0.000000 -60.000004
v 378.222321 0.000000 60.000000
v -369.067352 25.904161 60.000000
v 378.222229 25.904161 60.000000
v 377.253815 26.879999 -46.545532
v -368.986176 26.879999 -46.545532
v -369.067352 673.054016 60.000000
v -368.986176 672.991638 -46.545532
v -403.664825 25.904161 60.000000
v -403.664825 673.054016 60.000000
v -369.067322 673.054016 -60.000004
v 378.222321 673.054016 -60.000004
v 378.222321 25.903929 -60.000004
v -369.067352 25.903929 -60.000004
v -369.067352 699.871643 -60.000004
v -403.664825 673.054016 -60.000004
v -403.664825 699.871643 -60.000004
v 411.932465 25.903929 -60.000004
v 411.932465 0.000000 -60.000004
v 377.253815 672.991638 -46.545532
v -403.664825 699.871643 60.000000
v 411.932465 0.000000 60.000000
v 411.932465 25.904161 60.000000
v -369.067352 699.871643 60.000000
v 411.932465 673.054016 -60.000004
v 378.222321 699.871643 -60.000004
v 378.222229 673.054016 60.000000
v 411.932465 673.054016 60.000000
v 378.222321 699.871643 60.000000
v 411.932465 699.871643 -60.000004
v 411.932465 699.871643 60.000000
v -403.664825 25.903929 -60.000004
v -403.664825 0.000000 60.000000
v -403.664825 0.000000 -60.000004
v -403.664825 25.904161 69.697693
v -369.067352 25.904161 69.697693
v -369.067352 673.054016 69.697693
v -403.664825 673.054016 69.697693
v -369.067352 699.871643 69.697693
v -403.664825 699.871643 69.697693
v 378.222321 0.000000 69.697693
v 378.222229 25.904161 69.697693
v 411.932465 0.000000 69.697693
v 411.932465 25.904161 69.697693
v 378.222229 673.054016 69.697693
v 411.932465 673.054016 69.697693
v 378.222321 699.871643 69.697693
v 411.932465 699.871643 69.697693
v -403.664825 0.000000 69.697693
v -369.067352 0.000000 69.697693
vt 0.061917 0.000627
vt 0.718662 0.056573
vt 0.012100 0.303621
vt 0.986630 0.099608
vt 0.609608 0.232085
vt 0.335792 0.009130
vt 0.573601 0.500011
vt 0.564689 0.281896
vt 0.605425 0.999947
vt 0.333001 0.281921
vt 0.046505 0.009769
vt 0.058879 0.009875
vt 0.608902 1.000000
vt 0.047377 0.237962
vt 0.280057 0.544983
vt 0.012088 0.544970
vt 0.012100 0.312910
vt 0.280068 0.312923
vt 0.057539 0.294256
vt 0.292463 0.544984
vt 0.000596 0.247192
vt 0.000012 0.312910
vt 0.397490 0.011278
vt 0.571392 0.731737
vt 0.043877 0.237938
vt 0.043689 0.247520
vt 0.354864 0.005607
vt 0.353088 0.014763
vt 0.059329 0.251187
vt 0.059479 0.247708
vt 0.047110 0.247477
vt 0.337339 0.012224
vt 0.986630 0.103085
vt 0.351622 0.005025
vt 0.349568 0.014283
vt 0.000000 0.544969
vt 0.319955 0.304718
vt 0.609597 0.732051
vt 0.337861 0.249710
vt 0.321979 0.261676
vt 0.322592 0.248556
vt 0.334443 0.249410
vt 0.322140 0.258192
vt 0.331964 0.305429
vt 0.333910 0.262488
vt 0.333935 0.259006
vt 0.292475 0.312924
vt 0.043035 0.009730
vt 0.046400 0.000490
vt 0.058598 0.000628
vt 0.000006 0.000106
vt 0.706255 0.099603
vt 0.706255 0.103081
vt 0.718661 0.103081
vt 0.718661 0.099604
vt 0.042986 0.000452
vt 0.613074 0.732095
vt 0.059874 0.238086
vt 0.615290 0.500079
vt 0.998718 0.103085
vt 0.340220 0.002111
vt 0.998718 0.099608
vt 0.611812 0.500044
vt 0.337157 0.000000
vt 0.613085 0.232022
vt 0.062347 0.009915
vt 0.000000 0.009395
vt 0.706256 0.056573
vt 0.292475 0.303635
vt 0.280069 0.303634
vt 0.000723 0.237574
vt 0.012088 0.554587
vt 0.000000 0.554586
vt 0.380492 0.253981
vt 0.280057 0.554599
vt 0.396087 0.020379
vt 0.000012 0.303621
vt 0.998719 0.056577
vt 0.986631 0.056577
vt 0.292463 0.554600
vt 0.333030 0.549513
vt 0.567200 0.000778
vt 0.564718 0.549488
vt 0.571402 0.232428
vt 0.605399 0.000063
vt 0.608876 0.000000
vt 0.567226 0.999340
vt 0.337114 0.259301
vt 0.046945 0.250863
vt 0.379530 0.263569
vt 0.045155 0.293820
vn 0.000000 -1.000000 0.000000
vn 0.000000 -1.000000 0.000000
vn 0.000000 -1.000000 0.000000
vn 0.000000 -1.000000 0.000000
vn 0.000000 0.999958 0.009159
vn 0.000000 0.999958 0.009159
vn 0.000000 0.999958 0.009159
vn 0.000000 0.999958 0.009159
vn 1.000000 0.000000 0.000698
vn 1.000000 0.000000 0.000696
vn 1.000000 0.000000 0.000762
vn 1.000000 0.000000 0.000762
vn 0.000000 0.000000 1.000000
vn 0.000000 0.000000 1.000000
vn 0.000000 0.000000 1.000000
vn 0.000000 0.000000 1.000000
vn 0.000000 0.000000 1.000000
vn 0.000000 0.000000 1.000000
vn 0.000000 0.000000 1.000000
vn 0.000000 0.000000 1.000000
vn 0.000000 0.000000 -1.000000
vn 0.000000 0.000000 -1.000000
vn 0.000000 0.000000 -1.000000
vn 0.000000 0.000000 -1.000000
vn 0.000000 0.000000 -1.000000
vn 0.000000 0.000000 -1.000000
vn 0.000000 0.000000 -1.000000
vn 0.000000 0.000000 -1.000000
vn 0.000000 0.000000 -1.000000
vn 0.000000 0.000000 -1.000000
vn 0.000000 0.000000 1.000000
vn 0.000000 0.000000 1.000000
vn 0.000000 0.000000 1.000000
vn 0.000000 0.000000 1.000000
vn -1.000000 0.000000 0.000000
vn -1.000000 0.000000 0.000000
vn -1.000000 0.000000 0.000000
vn -1.000000 0.000000 0.000000
vn 0.000000 -1.000000 0.000000
vn 0.000000 -1.000000 0.000000
vn 1.000000 0.000000 0.000000
vn 1.000000 0.000000 0.000000
vn 1.000000 0.000000 0.000000
vn 1.000000 0.000000 0.000000
vn 0.000000 1.000000 0.000000
vn 0.000000 1.000000 0.000000
vn 0.000000 1.000000 0.000000
vn 0.000000 1.000000 0.000000
vn 0.000000 0.000000 1.000000
vn 0.000000 0.000000 1.000000
vn 0.000000 0.000000 1.000000
vn 0.000000 0.000000 1.000000
vn 0.000000 0.000000 1.000000
vn 0.000000 0.000000 1.000000
vn 0.000000 0.000000 -1.000000
vn 0.000000 0.000000 -1.000000
vn -0.999966 -0.000000 0.008298
vn -0.999965 0.000000 0.008330
vn -0.999959 0.000000 0.009089
vn -0.999959 0.000000 0.009089
vn 0.000000 -1.000000 0.000536
vn 0.000000 -1.000000 0.000536
vn 0.000000 -1.000000 0.000585
vn 0.000000 -1.000000 0.000585
vn 1.000000 0.000000 0.000000
vn 1.000000 0.000000 0.000000
vn 0.000000 1.000000 0.000000
vn 0.000000 1.000000 0.000000
vn 0.000000 0.000000 1.000000
vn 0.000000 0.000000 1.000000
vn 0.000000 0.000000 1.000000
vn 0.000000 0.000000 -1.000000
vn 1.000000 0.000000 0.000000
vn 1.000000 0.000000 0.000000
vn 0.000000 1.000000 0.000000
vn 0.000000 1.000000 0.000000
vn 0.000000 0.000000 1.000000
vn -1.000000 0.000000 0.000000
vn -1.000000 0.000000 0.000000
vn 0.000000 0.000000 -1.000000
vn 0.000000 0.000000 -1.000000
vn 0.000000 0.000000 1.000000
vn 0.000000 0.000000 1.000000
vn 0.000000 -1.000000 0.000000
vn 0.000000 -1.000000 0.000000
vn -1.000000 0.000000 0.000000
vn -1.000000 0.000000 0.000000
vn 0.000000 0.000000 -1.000000
vn 1.000000 0.000000 0.000000
vn 1.000000 0.000000 0.000000
vn -1.000000 0.000000 0.000000
vn -1.000000 0.000000 0.000000
vn 0.000000 1.000000 0.000000
vn 0.000000 1.000000 0.000000
vn -1.000000 0.000000 0.000000
vn -1.000000 -0.000003 0.000000
vn -1.000000 -0.000003 0.000000
vn -1.000000 -0.000000 0.000000
vn 0.000000 -1.000000 0.000000
vn 0.000000 -1.000000 0.000000
vn 1.000000 0.000000 0.000000
vn 1.000000 0.000000 0.000000
vn -1.000000 0.000000 0.000000
vn 1.000000 0.000000 0.000000
vn 0.000000 -1.000000 0.000000
vn 0.000000 -1.000000 0.000000
vn 0.000000 1.000000 0.000000
vn 1.000000 0.000000 0.000000
vn 0.000000 1.000000 0.000000
vn 0.000000 -1.000000 0.000000
vn 0.000000 -1.000000 0.000000
vn 1.000000 0.000000 0.000000
vn 1.000000 0.000000 0.000000
vn -1.000000 0.000000 0.000000
s 1
g Armario ArmarioDoble
usemtl initialShadingGroup
f 1/55/1 2/2/2 3/79/3 4/4/4
s off
f 5/5/5 6/63/6 7/7/7 8/84/8
s 2
f 9/85/9 5/5/10 8/84/11 10/82/12
s 3
f 37/11/13 38/12/14 39/58/15 40/14/16
s off
f 1/1/17 4/64/18 6/6/19 5/66/20
s 4
f 13/15/21 14/16/22 15/17/23 16/18/24
f 17/75/25 13/15/21 18/20/26 19/80/27
f 3/3/28 15/17/23 20/22/29 21/77/30
s off
f 10/10/31 8/8/32 7/83/33 22/81/34
s 5
f 19/21/35 18/71/36 12/25/37 23/26/38
s 1
f 4/4/4 3/79/3 21/78/39 24/62/40
s 6
f 24/27/41 21/23/42 20/76/43 25/28/44
s 7
f 23/89/45 26/29/46 17/19/47 19/91/48
s 3
f 40/14/16 39/58/15 41/30/49 42/31/50
f 44/32/51 43/61/52 45/34/53 46/35/54
s 4
f 15/17/23 14/16/22 27/36/55 20/22/29
f 28/72/56 14/16/22 13/15/21 17/75/25
s 9
f 6/63/57 29/38/58 22/24/59 7/7/60
s 10
f 29/38/61 9/9/62 10/87/63 22/24/64
s 6
f 25/28/44 20/76/43 27/74/65 30/39/66
s 7
f 17/19/47 26/29/46 31/40/67 28/37/68
s 3
f 47/41/69 44/32/51 46/35/54 48/42/70
f 39/58/15 47/41/69 49/43/71 41/30/49
s 4
f 32/73/72 27/36/55 14/16/22 28/72/56
s 6
f 30/39/66 27/74/65 32/90/73 33/88/74
s 7
f 28/37/68 31/40/67 33/45/75 32/44/76
s 3
f 49/43/71 47/41/69 48/42/70 50/46/77
s 5
f 12/25/37 18/71/36 34/67/78 11/48/79
s 4
f 16/18/24 15/17/23 3/3/28 2/70/80
f 18/20/26 13/15/21 16/18/24 34/47/81
s 3
f 51/49/82 52/50/83 38/12/14 37/11/13
s 1
f 36/68/84 2/2/2 1/55/1 35/52/85
s 5
f 11/48/79 34/67/78 36/51/86 35/56/87
s 4
f 34/47/81 16/18/24 2/70/80 36/69/88
s 2
f 5/5/10 9/85/9 39/86/89 38/65/90
s 5
f 12/25/37 11/48/79 37/11/91 40/14/92
s 7
f 26/29/46 23/89/45 42/31/93 41/30/94
s 5
f 23/26/38 12/25/37 40/14/92 42/31/95
s 9
f 6/6/57 4/64/96 43/61/97 44/32/98
s 1
f 4/4/4 24/62/40 45/60/99 43/33/100
s 6
f 24/27/41 25/28/44 46/35/101 45/34/102
s 9
f 29/38/58 6/63/57 44/59/98 47/57/103
s 6
f 25/28/44 30/39/66 48/42/104 46/35/101
s 10
f 9/9/62 29/38/61 47/57/105 39/13/106
s 7
f 31/40/67 26/29/46 41/30/94 49/43/107
s 6
f 30/39/66 33/88/74 50/46/108 48/42/104
s 7
f 33/45/75 31/40/67 49/43/107 50/46/109
s 1
f 35/52/85 1/55/1 52/54/110 51/53/111
s 2
f 1/1/112 5/66/10 38/12/90 52/50/113
s 5
f 11/48/79 35/56/87 51/49/114 37/11/91
g default
v -369.366180 125.000000 50.000000
v 377.633850 125.000000 50.000000
v -369.366180 133.000000 50.000000
v 377.633850 133.000000 50.000000
v -369.366180 133.000000 -50.000000
v 377.633850 133.000000 -50.000000
v -369.366180 125.000000 -50.000000
v 377.633850 125.000000 -50.000000
vt 0.657158 0.327321
vt 0.657168 0.059456
vt 0.657168 0.056587
vt 0.757486 0.367469
vt 0.621309 0.056586
vt 0.618431 0.327320
vt 0.621309 0.059455
vt 0.621299 0.327320
vt 0.793371 0.099608
vt 0.618440 0.059455
vt 0.793345 0.367473
vt 0.621299 0.330188
vt 0.660036 0.059456
vt 0.757512 0.099604
vt 0.660027 0.327321
vt 0.657158 0.330190
vn 0.000000 0.000000 1.000000
vn 0.000000 0.000000 1.000000
vn 0.000000 0.000000 1.000000
vn 0.000000 0.000000 1.000000
vn 0.000000 1.000000 0.000000
vn 0.000000 1.000000 0.000000
vn 0.000000 1.000000 0.000000
vn 0.000000 1.000000 0.000000
vn 0.000000 0.000000 -1.000000
vn 0.000000 0.000000 -1.000000
vn 0.000000 0.000000 -1.000000
vn 0.000000 0.000000 -1.000000
vn 0.000000 -1.000000 0.000000
vn 0.000000 -1.000000 0.000000
vn 0.000000 -1.000000 0.000000
vn 0.000000 -1.000000 0.000000
vn 1.000000 0.000000 0.000000
vn 1.000000 0.000000 0.000000
vn 1.000000 0.000000 0.000000
vn 1.000000 0.000000 0.000000
vn -1.000000 0.000000 0.000000
vn -1.000000 0.000000 0.000000
vn -1.000000 0.000000 0.000000
vn -1.000000 0.000000 0.000000
s off
g ArmarioDoble Estante1
usemtl initialShadingGroup
f 53/92/115 54/93/116 56/104/117 55/106/118
f 55/95/119 56/105/120 58/100/121 57/102/122
f 57/97/123 58/101/124 60/98/125 59/99/126
f 59/99/127 60/98/128 54/93/129 53/92/130
f 54/93/131 60/98/132 58/96/133 56/94/134
f 59/99/135 53/92/136 55/107/137 57/103/138
g default
v -369.366180 233.000000 50.000000
v 377.633850 233.000000 50.000000
v -369.366180 241.000000 50.000000
v 377.633850 241.000000 50.000000
v -369.366180 241.000000 -50.000000
v 377.633850 241.000000 -50.000000
v -369.366180 233.000000 -50.000000
v 377.633850 233.000000 -50.000000
vt 0.525441 0.270734
vt 0.525421 0.002869
vt 0.525421 0.000000
vt 0.720924 0.367473
vt 0.489562 0.000003
vt 0.486713 0.270737
vt 0.489563 0.002872
vt 0.489582 0.270736
vt 0.756751 0.099604
vt 0.486694 0.002872
vt 0.756783 0.367469
vt 0.489582 0.273605
vt 0.528290 0.002869
vt 0.720892 0.099608
vt 0.528309 0.270734
vt 0.525441 0.273603
vn 0.000000 0.000000 1.000000
vn 0.000000 0.000000 1.000000
vn 0.000000 0.000000 1.000000
vn 0.000000 0.000000 1.000000
vn 0.000000 1.000000 0.000000
vn 0.000000 1.000000 0.000000
vn 0.000000 1.000000 0.000000
vn 0.000000 1.000000 0.000000
vn 0.000000 0.000000 -1.000000
vn 0.000000 0.000000 -1.000000
vn 0.000000 0.000000 -1.000000
vn 0.000000 0.000000 -1.000000
vn 0.000000 -1.000000 0.000000
vn 0.000000 -1.000000 0.000000
vn 0.000000 -1.000000 0.000000
vn 0.000000 -1.000000 0.000000
vn 1.000000 0.000000 0.000000
vn 1.000000 0.000000 0.000000
vn 1.000000 0.000000 0.000000
vn 1.000000 0.000000 0.000000
vn -1.000000 0.000000 0.000000
vn -1.000000 0.000000 0.000000
vn -1.000000 0.000000 0.000000
vn -1.000000 0.000000 0.000000
s off
g ArmarioDoble Estante2
usemtl initialShadingGroup
f 61/108/139 62/109/140 64/120/141 63/122/142
f 63/111/143 64/121/144 66/116/145 65/118/146
f 65/113/147 66/117/148 68/114/149 67/115/150
f 67/115/151 68/114/152 62/109/153 61/108/154
f 62/109/155 68/114/156 66/112/157 64/110/158
f 67/115/159 61/108/160 63/123/161 65/119/162
g default
v -369.366180 341.000000 50.000000
v 377.633850 341.000000 50.000000
v -369.366180 349.000000 50.000000
v 377.633850 349.000000 50.000000
v -369.366180 349.000000 -50.000000
v 377.633850 349.000000 -50.000000
v -369.366180 341.000000 -50.000000
v 377.633850 341.000000 -50.000000
vt 0.437597 0.270741
vt 0.437645 0.002876
vt 0.437646 0.000007
vt 0.794081 0.367470
vt 0.401787 0.000000
vt 0.398869 0.270734
vt 0.401786 0.002869
vt 0.401738 0.270734
vt 0.829938 0.099605
vt 0.398918 0.002869
vt 0.829940 0.367470
vt 0.401738 0.273603
vt 0.440514 0.002876
vt 0.794080 0.099605
vt 0.440466 0.270741
vt 0.437596 0.273609
vn 0.000000 0.000000 1.000000
vn 0.000000 0.000000 1.000000
vn 0.000000 0.000000 1.000000
vn 0.000000 0.000000 1.000000
vn 0.000000 1.000000 0.000000
vn 0.000000 1.000000 0.000000
vn 0.000000 1.000000 0.000000
vn 0.000000 1.000000 0.000000
vn 0.000000 0.000000 -1.000000
vn 0.000000 0.000000 -1.000000
vn 0.000000 0.000000 -1.000000
vn 0.000000 0.000000 -1.000000
vn 0.000000 -1.000000 0.000000
vn 0.000000 -1.000000 0.000000
vn 0.000000 -1.000000 0.000000
vn 0.000000 -1.000000 0.000000
vn 1.000000 0.000000 0.000000
vn 1.000000 0.000000 0.000000
vn 1.000000 0.000000 0.000000
vn 1.000000 0.000000 0.000000
vn -1.000000 0.000000 0.000000
vn -1.000000 0.000000 0.000000
vn -1.000000 0.000000 0.000000
vn -1.000000 0.000000 0.000000
s off
g ArmarioDoble Estante3
usemtl initialShadingGroup
f 69/124/163 70/125/164 72/136/165 71/138/166
f 71/127/167 72/137/168 74/132/169 73/134/170
f 73/129/171 74/133/172 76/130/173 75/131/174
f 75/131/175 76/130/176 70/125/177 69/124/178
f 70/125/179 76/130/180 74/128/181 72/126/182
f 75/131/183 69/124/184 71/139/185 73/135/186
g default
v -369.366180 449.000000 50.000000
v 377.633850 449.000000 50.000000
v -369.366180 457.000000 50.000000
v 377.633850 457.000000 50.000000
v -369.366180 457.000000 -50.000000
v 377.633850 457.000000 -50.000000
v -369.366180 449.000000 -50.000000
v 377.633850 449.000000 -50.000000
vt 0.701070 0.327315
vt 0.701085 0.059450
vt 0.701085 0.056581
vt 0.830673 0.367470
vt 0.665226 0.056580
vt 0.662343 0.327313
vt 0.665226 0.059448
vt 0.665212 0.327313
vt 0.866533 0.099606
vt 0.662357 0.059448
vt 0.866532 0.367470
vt 0.665211 0.330182
vt 0.703953 0.059450
vt 0.830675 0.099606
vt 0.703939 0.327315
vt 0.701070 0.330184
vn 0.000000 0.000000 1.000000
vn 0.000000 0.000000 1.000000
vn 0.000000 0.000000 1.000000
vn 0.000000 0.000000 1.000000
vn 0.000000 1.000000 0.000000
vn 0.000000 1.000000 0.000000
vn 0.000000 1.000000 0.000000
vn 0.000000 1.000000 0.000000
vn 0.000000 0.000000 -1.000000
vn 0.000000 0.000000 -1.000000
vn 0.000000 0.000000 -1.000000
vn 0.000000 0.000000 -1.000000
vn 0.000000 -1.000000 0.000000
vn 0.000000 -1.000000 0.000000
vn 0.000000 -1.000000 0.000000
vn 0.000000 -1.000000 0.000000
vn 1.000000 0.000000 0.000000
vn 1.000000 0.000000 0.000000
vn 1.000000 0.000000 0.000000
vn 1.000000 0.000000 0.000000
vn -1.000000 0.000000 0.000000
vn -1.000000 0.000000 0.000000
vn -1.000000 0.000000 0.000000
vn -1.000000 0.000000 0.000000
s off
g ArmarioDoble Estante4
usemtl initialShadingGroup
f 77/140/187 78/141/188 80/152/189 79/154/190
f 79/143/191 80/153/192 82/148/193 81/150/194
f 81/145/195 82/149/196 84/146/197 83/147/198
f 83/147/199 84/146/200 78/141/201 77/140/202
f 78/141/203 84/146/204 82/144/205 80/142/206
f 83/147/207 77/140/208 79/155/209 81/151/210
g default
v -369.366180 557.000000 50.000000
v 377.633850 557.000000 50.000000
v -369.366180 565.000000 50.000000
v 377.633850 565.000000 50.000000
v -369.366180 565.000000 -50.000000
v 377.633850 565.000000 -50.000000
v -369.366180 557.000000 -50.000000
v 377.633850 557.000000 -50.000000
vt 0.481509 0.270739
vt 0.481546 0.002874
vt 0.481546 0.000005
vt 0.530641 0.267870
vt 0.445687 0.000000
vt 0.442782 0.270734
vt 0.445687 0.002869
vt 0.445650 0.270734
vt 0.566465 0.000000
vt 0.442818 0.002869
vt 0.566500 0.267865
vt 0.445650 0.273603
vt 0.484414 0.002874
vt 0.530606 0.000005
vt 0.484378 0.270739
vt 0.481509 0.273608
vn 0.000000 0.000000 1.000000
vn 0.000000 0.000000 1.000000
vn 0.000000 0.000000 1.000000
vn 0.000000 0.000000 1.000000
vn 0.000000 1.000000 0.000000
vn 0.000000 1.000000 0.000000
vn 0.000000 1.000000 0.000000
vn 0.000000 1.000000 0.000000
vn 0.000000 0.000000 -1.000000
vn 0.000000 0.000000 -1.000000
vn 0.000000 0.000000 -1.000000
vn 0.000000 0.000000 -1.000000
vn 0.000000 -1.000000 0.000000
vn 0.000000 -1.000000 0.000000
vn 0.000000 -1.000000 0.000000
vn 0.000000 -1.000000 0.000000
vn 1.000000 0.000000 0.000000
vn 1.000000 0.000000 0.000000
vn 1.000000 0.000000 0.000000
vn 1.000000 0.000000 0.000000
vn -1.000000 0.000000 0.000000
vn -1.000000 0.000000 0.000000
vn -1.000000 0.000000 0.000000
vn -1.000000 0.000000 0.000000
s off
g ArmarioDoble Estante5
usemtl initialShadingGroup
f 85/156/211 86/157/212 88/168/213 87/170/214
f 87/159/215 88/169/216 90/164/217 89/166/218
f 89/161/219 90/165/220 92/162/221 91/163/222
f 91/163/223 92/162/224 86/157/225 85/156/226
f 86/157/227 92/162/228 90/160/229 88/158/230
f 91/163/231 85/156/232 87/171/233 89/167/234
g default
v -5.866172 0.500000 69.802078
v 14.133828 0.500000 69.802078
v -5.866172 675.500000 69.802078
v 14.133828 675.500000 69.802078
v -5.866172 675.500000 -47.897434
v 14.133828 675.500000 -47.897434
v -5.866172 0.500000 -47.897434
v 14.133828 0.500000 -47.897434
vt 0.087826 0.009842
vt 0.860330 0.007172
vt 0.618284 0.007209
vt 0.611112 0.007210
vt 0.618290 0.049414
vt 0.618291 0.056586
vt 0.860337 0.049378
vt 0.867508 0.049377
vt 0.860338 0.056549
vt 0.087824 0.052047
vt 0.860329 0.000000
vt 0.867502 0.007171
vt 0.611118 0.049416
vt 0.329871 0.052057
vt 0.618283 0.000037
vt 0.329873 0.009852
vn 0.000000 0.000000 1.000000
vn 0.000000 0.000000 1.000000
vn 0.000000 0.000000 1.000000
vn 0.000000 0.000000 1.000000
vn 0.000000 1.000000 0.000000
vn 0.000000 1.000000 0.000000
vn 0.000000 1.000000 0.000000
vn 0.000000 1.000000 0.000000
vn 0.000000 0.000000 -1.000000
vn 0.000000 0.000000 -1.000000
vn 0.000000 0.000000 -1.000000
vn 0.000000 0.000000 -1.000000
vn 0.000000 -1.000000 0.000000
vn 0.000000 -1.000000 0.000000
vn 0.000000 -1.000000 0.000000
vn 0.000000 -1.000000 0.000000
vn 1.000000 0.000000 0.000000
vn 1.000000 0.000000 0.000000
vn 1.000000 0.000000 0.000000
vn 1.000000 0.000000 0.000000
vn -1.000000 0.000000 0.000000
vn -1.000000 0.000000 0.000000
vn -1.000000 0.000000 0.000000
vn -1.000000 0.000000 0.000000
s off
g ArmarioDoble EstanteDivisor
usemtl initialShadingGroup
f 93/182/235 94/173/236 96/174/237 95/186/238
f 95/175/239 96/174/240 98/176/241 97/184/242
f 97/177/243 98/176/244 100/178/245 99/180/246
f 99/179/247 100/178/248 94/173/249 93/183/250
f 94/173/251 100/178/252 98/176/253 96/174/254
f 99/181/255 93/172/256 95/187/257 97/185/258
