# This file uses centimeters as units for non-parametric coordinates.

mtllib Cartel_Metro_Objeto.mtl
g default
v -2.666153 4.418405 0.150378
v 2.666153 4.418405 0.150378
v -2.666153 8.389393 0.150378
v 2.666153 8.389393 0.150378
v -2.666153 8.389393 -0.150378
v 2.666153 8.389393 -0.150378
v -2.666153 4.418405 -0.150378
v 2.666153 4.418405 -0.150378
v 2.497727 4.418405 0.150378
v 2.497727 8.389393 0.150378
v 2.497727 8.389393 -0.150378
v 2.497727 4.418405 -0.150378
v -2.510355 4.418405 0.150378
v -2.510355 8.389393 0.150378
v -2.510355 8.389393 -0.150378
v -2.510355 4.418405 -0.150378
v -2.666153 8.270083 0.150378
v -2.666153 8.270085 -0.150378
v -2.510356 8.270085 -0.150378
v 2.497727 8.270085 -0.150378
v 2.666153 8.270085 -0.150378
v 2.666153 8.270083 0.150378
v 2.497727 8.270083 0.150378
v -2.510356 8.270083 0.150378
v -2.666153 4.531392 0.150378
v -2.666153 4.531394 -0.150378
v -2.510355 4.531394 -0.150378
v 2.497727 4.531394 -0.150378
v 2.666153 4.531394 -0.150378
v 2.666153 4.531392 0.150378
v 2.497727 4.531392 0.150378
v -2.510356 4.531392 0.150378
v 2.497727 8.270083 0.050378
v -2.510356 8.270083 0.050378
v -2.510356 4.531392 0.050378
v 2.497727 4.531392 0.050378
vt 0.336192 0.658804
vt 0.335061 0.645916
vt 0.452727 0.701117
vt 0.344773 0.662604
vt 0.626983 0.939434
vt 0.640300 0.943457
vt 0.004479 0.987777
vt 0.609593 0.957652
vt 0.323215 0.685747
vt 0.383229 0.190198
vt 0.305404 0.673321
vt 0.318759 0.677216
vt 0.769124 0.012256
vt 0.795360 0.013342
vt 0.798294 0.021238
vt 0.766631 0.022153
vt 0.749758 0.017455
vt 0.965171 0.752731
vt 0.517575 0.944645
vt 0.514985 0.913832
vt 0.784870 0.415465
vt 0.810953 0.416608
vt 0.968963 0.722042
vt 0.815123 0.014856
vt 0.600567 0.953582
vt 0.622185 0.930390
vt 0.005506 1.000000
vt 0.830486 0.410682
vt 0.813545 0.406126
vt 0.781812 0.407073
vt 0.513957 0.901608
vt 0.636598 0.922823
vt 0.367631 0.640026
vt 0.643857 0.915137
vt 0.451466 0.711321
vt 0.739166 0.017829
vt 0.962486 0.774464
vt 0.754295 0.413637
vt 0.963747 0.764260
vt 0.764889 0.413262
vt 0.736030 0.000002
vt 0.802506 0.000006
vt 0.777808 0.428860
vt 0.518603 0.956869
vt 0.761674 0.002376
vt 0.818280 0.426580
vt 0.359891 0.640511
vt -0.000000 0.934494
vt 0.352637 0.648192
vt 0.000861 0.944739
vt 0.308743 0.693145
vt 0.457944 0.658899
vt 0.001889 0.956963
vt 0.592555 0.967942
vt 0.454152 0.689588
vt 0.610785 0.970585
vt 0.361678 0.000000
vt 0.012657 0.194029
vt 0.513096 0.891363
vt 0.000000 0.660738
vt 0.459369 0.647369
vt 0.970388 0.710513
vt 0.371796 0.651959
vt 0.743761 0.631676
vn 0.000000 0.000000 1.000000
vn 0.000000 0.000000 1.000000
vn 0.000000 0.000000 1.000000
vn 0.000000 0.000000 1.000000
vn 0.000000 1.000000 0.000000
vn 0.000000 1.000000 0.000000
vn 0.000000 1.000000 0.000000
vn 0.000000 1.000000 0.000000
vn 0.000000 0.000000 -1.000000
vn 0.000000 0.000000 -1.000000
vn 0.000000 0.000000 -1.000000
vn 0.000000 0.000000 -1.000000
vn 0.000000 -1.000000 0.000000
vn 0.000000 -1.000000 0.000000
vn 0.000000 -1.000000 0.000000
vn 0.000000 -1.000000 0.000000
vn 1.000000 0.000000 0.000000
vn 1.000000 0.000000 0.000000
vn 1.000000 0.000000 0.000000
vn 1.000000 0.000000 0.000000
vn -1.000000 -0.000003 -0.000000
vn -1.000000 -0.000003 -0.000000
vn -1.000000 -0.000000 -0.000000
vn -1.000000 -0.000000 -0.000000
vn 0.000000 0.000000 1.000000
vn 0.000000 0.000000 1.000000
vn 0.000000 0.000000 1.000000
vn 0.000000 0.000000 1.000000
vn 0.000000 1.000000 0.000000
vn 0.000000 1.000000 0.000000
vn 0.000000 1.000000 0.000000
vn 0.000000 1.000000 0.000000
vn 0.000000 0.000000 -1.000000
vn 0.000000 0.000000 -1.000000
vn 0.000000 0.000000 -1.000000
vn 0.000000 0.000000 -1.000000
vn 0.000000 -1.000000 0.000000
vn 0.000000 -1.000000 0.000000
vn 0.000000 -1.000000 0.000000
vn 0.000000 -1.000000 0.000000
vn -1.000000 0.000000 0.000000
vn -1.000000 0.000000 0.000000
vn -1.000000 0.000003 0.000000
vn -1.000000 0.000003 0.000000
vn 0.000000 0.000000 -1.000000
vn 0.000000 0.000000 -1.000000
vn 0.000000 0.000000 -1.000000
vn 0.000000 0.000000 -1.000000
vn 0.000000 0.000000 -1.000000
vn 0.000000 0.000000 -1.000000
vn 0.000000 0.000000 -1.000000
vn 0.000000 0.000000 -1.000000
vn 1.000000 0.000000 0.000000
vn 1.000000 0.000000 0.000000
vn 1.000000 0.000000 0.000000
vn 1.000000 0.000000 0.000000
vn 0.000000 0.000000 1.000000
vn 0.000000 0.000000 1.000000
vn 0.000000 0.000000 1.000000
vn 0.000000 0.000000 1.000000
vn 0.000000 0.000000 1.000000
vn 0.000000 0.000000 1.000000
vn 0.000000 0.000000 1.000000
vn 0.000000 0.000000 1.000000
vn 0.000000 0.000000 1.000000
vn 0.000000 0.000000 1.000000
vn 0.000000 0.000000 1.000000
vn 0.000000 0.000000 1.000000
vn 0.000000 -1.000000 0.000000
vn 0.000000 -1.000000 0.000000
vn 0.000000 -1.000000 0.000000
vn 0.000000 -1.000000 0.000000
vn 1.000000 0.000000 0.000000
vn 1.000000 0.000000 0.000000
vn 1.000000 0.000000 0.000000
vn 1.000000 0.000000 0.000000
vn 0.000000 1.000000 0.000000
vn 0.000000 1.000000 0.000000
vn 0.000000 1.000000 0.000000
vn 0.000000 1.000000 0.000000
vn -1.000000 0.000000 0.000000
vn -1.000000 0.000000 0.000000
vn -1.000000 0.000000 0.000000
vn -1.000000 0.000000 0.000000
s 1
g pCube1
usemtl initialShadingGroup
f 1/1/1 13/2/2 32/49/3 25/4/4
s 2
f 3/5/5 14/6/6 15/56/7 5/8/8
s 3
f 26/9/9 27/51/10 16/11/11 7/12/12
s 4
f 7/12/13 16/11/14 13/2/15 1/1/16
s 5
f 2/13/17 8/14/18 29/15/19 30/16/20
s 6
f 7/12/21 1/1/22 25/4/23 26/9/24
s 1
f 30/16/25 31/17/26 9/45/27 2/13/28
s 2
f 11/46/29 10/43/30 4/21/31 6/22/32
s 3
f 12/42/33 28/24/34 29/15/35 8/14/36
s 4
f 9/45/37 12/42/38 8/14/39 2/13/40
s 1
f 31/39/26 32/3/3 13/55/2 9/18/27
s 2
f 15/7/7 14/53/6 10/20/30 11/19/29
s 3
f 16/52/11 27/61/10 28/62/34 12/23/33
s 4
f 13/55/15 16/52/14 12/23/38 9/18/37
s 6
f 18/25/41 17/26/42 3/5/43 5/8/44
s 3
f 5/8/45 15/56/46 19/54/47 18/25/48
f 20/44/49 19/27/47 15/7/46 11/19/50
f 21/29/51 20/28/49 11/46/50 6/22/52
s 5
f 22/30/53 21/29/54 6/22/55 4/21/56
s 1
f 10/43/57 23/40/58 22/30/59 4/21/60
f 14/53/61 24/50/62 23/31/58 10/20/57
f 17/26/63 24/32/62 14/6/61 3/5/64
s 6
f 26/9/24 25/4/23 17/26/42 18/25/41
s 3
f 18/25/48 19/54/47 27/51/10 26/9/9
f 28/41/34 27/10/10 19/63/47 20/64/49
f 29/15/35 28/24/34 20/28/49 21/29/51
s 5
f 30/16/20 29/15/19 21/29/54 22/30/53
s 1
f 22/30/59 23/40/58 31/17/26 30/16/25
s off
f 33/33/65 34/60/66 35/58/67 36/57/68
s 1
f 25/4/4 32/49/3 24/32/62 17/26/63
s off
f 23/31/69 24/50/70 34/48/71 33/59/72
f 24/32/73 32/49/74 35/47/75 34/34/76
f 32/3/77 31/39/78 36/37/79 35/35/80
f 31/17/81 23/40/82 33/38/83 36/36/84
