# This file uses centimeters as units for non-parametric coordinates.

mtllib Maquina expendedora de billetes.mtl
g default
v -2.683954 0.096937 2.032379
v 2.683954 0.096937 2.032379
v -2.683954 11.375098 2.032379
v 2.683954 11.375098 2.032379
v -2.683954 11.375098 -2.032379
v 2.683954 11.375098 -2.032379
v -2.683954 0.096937 -2.032379
v 2.683954 0.096937 -2.032379
v -2.683954 9.778923 2.032379
v -2.683954 9.778923 -2.032379
v 2.683954 9.778923 -2.032379
v 2.683954 9.778923 2.032379
v -2.683954 5.988250 2.032379
v -2.683954 5.988250 -2.032379
v 2.683954 5.988250 -2.032379
v 2.683954 5.988250 2.032379
v 2.178757 6.345006 2.032379
v -2.178757 6.345006 2.032379
v 2.178757 9.422166 2.032379
v -2.178757 9.422166 2.032379
v 2.178757 6.346912 -0.212380
v -2.178757 6.346912 -0.212380
v 2.178757 8.869423 -0.212380
v -2.178757 8.869423 -0.212380
vt 0.001992 0.001770
vt 0.271984 0.001770
vt 0.271984 0.298087
vt 0.001992 0.298087
vt 0.793561 0.843014
vt 0.793561 0.573023
vt 0.998008 0.573023
vt 0.998008 0.843014
vt 0.548535 0.298050
vt 0.279332 0.298050
vt 0.279332 0.002599
vt 0.548535 0.002599
vt 0.582980 0.843014
vt 0.582980 0.573023
vt 0.787426 0.573023
vt 0.787426 0.843014
vt 0.555689 0.001770
vt 0.760136 0.001770
vt 0.760136 0.298087
vt 0.555689 0.298087
vt 0.768125 0.001770
vt 0.972572 0.001770
vt 0.972572 0.298087
vt 0.768125 0.298087
vt 0.768125 0.488748
vt 0.972572 0.488748
vt 0.972572 0.569031
vt 0.768125 0.569031
vt 0.548535 0.568202
vt 0.279332 0.568202
vt 0.279332 0.488154
vt 0.548535 0.488154
vt 0.555689 0.488748
vt 0.760136 0.488748
vt 0.760136 0.569031
vt 0.555689 0.569031
vt 0.001992 0.488748
vt 0.271984 0.488748
vt 0.271984 0.569031
vt 0.001992 0.569031
vt 0.449969 0.792194
vt 0.449969 0.573023
vt 0.576844 0.573023
vt 0.576844 0.792194
vt 0.246574 0.316031
vt 0.027402 0.316031
vt 0.246574 0.470804
vt 0.027402 0.470804
vt 0.330928 0.792194
vt 0.330928 0.573023
vt 0.443833 0.573023
vt 0.443833 0.792194
vt 0.205752 0.573023
vt 0.205752 0.727796
vt 0.092847 0.699994
vt 0.092847 0.573119
vt 0.324793 0.573023
vt 0.324793 0.792194
vt 0.211887 0.792194
vt 0.211887 0.573023
vt 0.001992 0.886560
vt 0.001992 0.731787
vt 0.114898 0.731883
vt 0.114898 0.858759
vn 0.000000 0.000000 1.000000
vn 0.000000 0.000000 1.000000
vn 0.000000 0.000000 1.000000
vn 0.000000 0.000000 1.000000
vn 0.000000 1.000000 0.000000
vn 0.000000 1.000000 0.000000
vn 0.000000 1.000000 0.000000
vn 0.000000 1.000000 0.000000
vn 0.000000 0.000000 -1.000000
vn 0.000000 0.000000 -1.000000
vn 0.000000 0.000000 -1.000000
vn 0.000000 0.000000 -1.000000
vn 0.000000 -1.000000 0.000000
vn 0.000000 -1.000000 0.000000
vn 0.000000 -1.000000 0.000000
vn 0.000000 -1.000000 0.000000
vn 1.000000 0.000000 0.000000
vn 1.000000 0.000000 0.000000
vn 1.000000 0.000000 0.000000
vn 1.000000 0.000000 0.000000
vn -1.000000 0.000000 0.000000
vn -1.000000 0.000000 0.000000
vn -1.000000 0.000000 0.000000
vn -1.000000 0.000000 0.000000
vn -1.000000 0.000000 0.000000
vn -1.000000 0.000000 0.000000
vn -1.000000 0.000000 0.000000
vn -1.000000 0.000000 0.000000
vn 0.000000 0.000000 -1.000000
vn 0.000000 0.000000 -1.000000
vn 0.000000 0.000000 -1.000000
vn 0.000000 0.000000 -1.000000
vn 1.000000 0.000000 0.000000
vn 1.000000 0.000000 0.000000
vn 1.000000 0.000000 0.000000
vn 1.000000 0.000000 0.000000
vn 0.000000 0.000000 1.000000
vn 0.000000 0.000000 1.000000
vn 0.000000 0.000000 1.000000
vn 0.000000 0.000000 1.000000
vn -1.000000 0.000000 0.000000
vn -1.000000 0.000000 0.000000
vn -1.000000 0.000000 0.000000
vn -1.000000 0.000000 0.000000
vn 0.000000 0.000000 -1.000000
vn 0.000000 0.000000 -1.000000
vn 0.000000 0.000000 -1.000000
vn 0.000000 0.000000 -1.000000
vn 1.000000 0.000000 0.000000
vn 1.000000 0.000000 0.000000
vn 1.000000 0.000000 0.000000
vn 1.000000 0.000000 0.000000
vn 0.000000 0.000000 1.000000
vn 0.000000 0.000000 1.000000
vn 0.000000 0.000000 1.000000
vn 0.000000 0.000000 1.000000
vn 0.000000 0.000000 1.000000
vn 0.000000 0.000000 1.000000
vn 0.000000 0.000000 1.000000
vn 0.000000 0.000000 1.000000
vn 0.000000 0.000000 1.000000
vn 0.000000 0.000000 1.000000
vn 0.000000 0.000000 1.000000
vn 0.000000 0.000000 1.000000
vn 0.000000 0.000000 1.000000
vn 0.000000 0.000000 1.000000
vn 0.000000 0.000000 1.000000
vn 0.000000 0.000000 1.000000
vn 0.000000 0.000000 1.000000
vn 0.000000 0.000000 1.000000
vn 0.000000 0.000000 1.000000
vn 0.000000 0.000000 1.000000
vn 0.000000 1.000000 0.000849
vn 0.000000 1.000000 0.000849
vn 0.000000 1.000000 0.000849
vn 0.000000 1.000000 0.000849
vn -1.000000 0.000000 -0.000000
vn -1.000000 0.000000 -0.000000
vn -1.000000 0.000000 -0.000000
vn -1.000000 0.000000 -0.000000
vn 0.000000 -0.970996 0.239095
vn 0.000000 -0.970996 0.239095
vn 0.000000 -0.970996 0.239095
vn 0.000000 -0.970996 0.239095
vn 1.000000 0.000000 0.000000
vn 1.000000 0.000000 0.000000
vn 1.000000 0.000000 0.000000
vn 1.000000 0.000000 0.000000
s off
g Expendedor_de_billetes__Expendedor_Billetes_Arreglado_pCube1
usemtl initialShadingGroup
f 1/1/1 2/2/2 16/3/3 13/4/4
f 3/5/5 4/6/6 6/7/7 5/8/8
f 14/9/9 15/10/10 8/11/11 7/12/12
f 7/13/13 8/14/14 2/15/15 1/16/16
f 2/17/17 8/18/18 15/19/19 16/20/20
f 7/21/21 1/22/22 13/23/23 14/24/24
f 10/25/25 9/26/26 3/27/27 5/28/28
f 5/29/29 6/30/30 11/31/31 10/32/32
f 12/33/33 11/34/34 6/35/35 4/36/36
f 9/37/37 12/38/38 4/39/39 3/40/40
f 14/24/41 13/23/42 9/26/43 10/25/44
f 10/32/45 11/31/46 15/10/47 14/9/48
f 16/20/49 15/19/50 11/34/51 12/33/52
f 22/41/53 21/42/54 23/43/55 24/44/56
f 13/4/57 16/3/58 17/45/59 18/46/60
f 16/3/61 12/38/62 19/47/63 17/45/64
f 12/38/65 9/37/66 20/48/67 19/47/68
f 9/37/69 13/4/70 18/46/71 20/48/72
f 18/49/73 17/50/74 21/51/75 22/52/76
f 17/53/77 19/54/78 23/55/79 21/56/80
f 19/57/81 20/58/82 24/59/83 23/60/84
f 20/61/85 18/62/86 22/63/87 24/64/88
